<svg id="svg" version="1.1" xmlns="http://www.w3.org/2000/svg" xmlns:xlink="http://www.w3.org/1999/xlink" width="400" height="505.08474576271186" viewBox="0, 0, 400,505.08474576271186"><g id="svgg"><path id="path0" d="M177.348 54.435 C 174.460 54.610,171.040 55.023,169.748 55.353 C 168.457 55.683,165.593 56.149,163.384 56.388 C 161.175 56.626,158.475 56.981,157.384 57.176 C 156.293 57.371,154.265 57.732,152.878 57.978 C 151.490 58.223,149.600 58.665,148.678 58.959 C 147.755 59.253,145.951 59.714,144.669 59.982 C 143.388 60.251,141.318 60.974,140.069 61.590 C 138.821 62.205,136.990 62.831,136.000 62.982 C 133.162 63.414,131.510 64.027,130.000 65.209 C 129.182 65.849,127.618 66.508,126.238 66.794 C 124.500 67.153,123.512 67.635,122.501 68.618 C 121.745 69.352,120.558 70.075,119.863 70.225 C 118.068 70.611,116.347 71.560,115.510 72.624 C 115.114 73.127,114.266 73.654,113.624 73.795 C 112.521 74.037,110.400 75.758,110.400 76.411 C 110.400 76.577,109.978 76.819,109.462 76.949 C 108.098 77.291,100.911 84.376,100.585 85.700 C 100.435 86.305,100.094 86.800,99.826 86.800 C 99.112 86.800,97.600 88.538,97.600 89.360 C 97.600 89.750,96.996 90.603,96.257 91.257 C 95.414 92.004,94.634 93.270,94.162 94.660 C 93.748 95.878,93.094 97.043,92.709 97.249 C 91.707 97.785,90.941 99.456,90.436 102.208 C 90.194 103.524,89.755 104.780,89.460 105.000 C 88.053 106.048,86.810 110.599,86.803 114.729 C 86.801 115.681,86.306 117.841,85.702 119.529 L 84.603 122.600 84.398 162.400 C 84.189 202.854,84.146 203.851,82.645 203.425 C 82.180 203.293,80.900 203.003,79.800 202.780 C 76.451 202.100,74.657 201.481,73.400 200.570 C 72.740 200.092,71.210 199.388,70.000 199.005 C 68.790 198.623,67.080 197.906,66.200 197.413 C 65.320 196.919,63.700 196.184,62.600 195.779 C 61.500 195.375,59.970 194.644,59.200 194.157 C 58.430 193.669,56.720 192.951,55.400 192.561 C 54.080 192.171,52.541 191.436,51.981 190.928 C 46.915 186.340,36.288 188.720,32.999 195.180 C 32.612 195.940,32.045 196.812,31.739 197.118 C 30.907 197.950,30.178 199.531,29.439 202.100 C 29.075 203.365,28.617 204.400,28.421 204.400 C 26.844 204.400,25.901 216.076,27.274 218.600 C 28.405 220.680,31.727 223.833,33.600 224.604 C 34.590 225.011,35.947 225.851,36.615 226.469 C 37.284 227.087,38.814 227.877,40.015 228.225 C 41.344 228.610,42.598 229.301,43.217 229.988 C 43.776 230.610,45.036 231.352,46.017 231.637 C 46.998 231.923,48.474 232.722,49.297 233.414 C 50.120 234.106,51.560 234.899,52.497 235.177 C 53.434 235.455,54.405 235.850,54.657 236.054 C 55.576 236.802,64.098 240.840,65.240 241.068 C 65.887 241.197,66.514 241.460,66.632 241.652 C 66.750 241.843,67.155 242.000,67.531 242.000 C 67.907 242.000,68.841 242.426,69.607 242.946 C 70.373 243.467,71.630 244.028,72.400 244.193 C 74.764 244.700,77.314 245.600,79.203 246.595 C 80.195 247.117,82.265 247.766,83.803 248.037 C 85.453 248.328,87.601 249.078,89.041 249.866 C 90.830 250.846,92.379 251.325,94.841 251.660 C 97.305 251.996,98.845 252.473,100.623 253.450 C 102.578 254.526,103.812 254.873,107.023 255.254 C 109.841 255.587,111.699 256.057,113.400 256.867 C 114.720 257.495,117.330 258.285,119.200 258.623 C 121.070 258.960,122.960 259.409,123.400 259.619 C 124.409 260.102,138.015 262.400,139.863 262.400 C 140.620 262.400,141.748 262.663,142.370 262.984 C 144.188 263.924,147.691 264.312,164.000 265.379 C 172.470 265.933,180.570 266.585,182.000 266.827 C 185.917 267.492,201.083 267.752,206.800 267.252 C 218.550 266.224,226.374 265.608,235.200 265.015 C 245.506 264.324,249.513 263.807,251.135 262.960 C 251.721 262.655,252.766 262.404,253.457 262.402 C 255.050 262.399,268.723 260.095,269.313 259.730 C 269.556 259.580,271.580 259.153,273.813 258.780 C 276.402 258.348,278.820 257.649,280.493 256.851 C 281.935 256.163,283.614 255.600,284.224 255.600 C 286.882 255.600,290.752 254.633,293.000 253.407 C 294.552 252.560,296.248 252.000,297.800 251.822 C 301.451 251.403,303.244 250.856,305.000 249.627 C 306.089 248.866,307.365 248.414,308.993 248.214 C 311.442 247.912,314.131 247.043,315.200 246.207 C 315.819 245.722,319.736 244.400,320.552 244.400 C 320.965 244.400,325.136 242.547,326.895 241.581 C 327.277 241.372,327.881 241.200,328.239 241.200 C 328.596 241.200,329.903 240.687,331.144 240.060 C 336.226 237.491,341.059 235.220,341.983 234.965 C 342.524 234.815,343.604 234.089,344.383 233.350 C 345.162 232.611,346.058 232.005,346.374 232.003 C 347.439 231.997,350.361 230.352,350.590 229.630 C 350.742 229.152,351.680 228.681,353.411 228.212 C 355.156 227.740,356.299 227.163,356.902 226.449 C 357.396 225.866,358.610 225.127,359.600 224.808 C 362.110 223.999,365.858 220.404,366.450 218.238 C 367.545 214.234,366.775 206.064,365.063 203.520 C 364.575 202.794,363.962 201.480,363.701 200.600 C 362.376 196.133,356.952 190.016,353.400 188.983 C 349.992 187.992,343.846 188.969,341.798 190.828 C 341.357 191.228,339.737 191.960,338.198 192.455 C 336.659 192.950,334.860 193.737,334.200 194.204 C 333.540 194.670,331.920 195.476,330.600 195.994 C 329.280 196.513,327.750 197.242,327.200 197.616 C 326.650 197.990,325.135 198.603,323.833 198.979 C 322.531 199.354,320.911 200.061,320.233 200.551 C 318.064 202.115,313.985 203.059,311.448 202.583 L 310.000 202.311 309.997 164.655 C 309.993 121.559,309.681 115.338,307.413 113.070 C 307.083 112.740,306.645 110.969,306.394 108.951 C 305.930 105.218,304.841 102.144,303.847 101.763 C 303.520 101.637,303.059 100.635,302.824 99.537 C 302.323 97.200,301.839 96.172,300.596 94.800 C 300.098 94.250,299.561 93.350,299.404 92.800 C 299.247 92.250,298.631 91.170,298.035 90.400 C 297.439 89.630,296.370 88.148,295.660 87.106 C 293.946 84.590,287.661 78.300,285.512 76.949 C 284.570 76.357,283.574 75.555,283.299 75.167 C 283.023 74.779,282.123 74.242,281.299 73.974 C 280.474 73.706,279.150 72.905,278.354 72.194 C 277.559 71.482,276.012 70.603,274.917 70.239 C 273.821 69.875,272.546 69.142,272.084 68.610 C 271.287 67.694,267.911 66.400,266.315 66.400 C 265.908 66.400,265.473 66.135,265.349 65.810 C 265.000 64.901,261.249 63.288,258.800 62.994 C 257.590 62.848,255.968 62.321,255.195 61.822 C 253.830 60.940,252.537 60.561,245.000 58.831 C 243.020 58.377,240.644 57.827,239.719 57.609 C 238.795 57.391,235.825 56.932,233.119 56.588 C 230.414 56.243,226.940 55.709,225.400 55.400 C 219.022 54.120,191.642 53.570,177.348 54.435 M85.800 277.835 C 82.280 278.122,77.960 278.634,76.200 278.972 C 74.440 279.311,69.940 279.873,66.200 280.221 C 53.890 281.367,53.137 282.136,53.094 293.600 C 53.063 301.990,53.504 303.371,57.539 307.546 C 58.893 308.946,60.000 310.231,60.000 310.401 C 60.000 310.572,60.619 311.407,61.375 312.256 C 62.412 313.420,62.811 314.292,62.994 315.800 C 63.433 319.418,64.102 321.732,65.214 323.486 C 65.904 324.574,66.410 326.063,66.582 327.507 C 66.996 331.000,67.562 332.794,68.606 333.919 C 69.520 334.905,69.860 335.979,70.802 340.855 C 71.047 342.122,71.577 343.417,72.012 343.811 C 72.437 344.196,73.237 345.993,73.790 347.804 C 74.342 349.615,75.095 351.345,75.462 351.649 C 75.830 351.952,76.454 352.930,76.849 353.823 C 77.812 355.994,84.876 363.200,86.042 363.200 C 86.382 363.200,87.676 363.989,88.918 364.953 C 90.170 365.925,91.839 366.831,92.663 366.985 C 93.481 367.139,95.299 367.957,96.702 368.803 C 98.697 370.007,99.836 370.403,101.927 370.620 C 103.397 370.772,104.780 371.027,105.000 371.186 C 109.942 374.755,138.295 374.880,143.886 371.358 C 144.373 371.051,145.286 370.800,145.913 370.800 C 147.762 370.800,151.070 369.658,152.355 368.576 C 153.012 368.024,154.497 367.290,155.657 366.946 C 157.027 366.539,158.200 365.845,159.006 364.966 C 159.688 364.221,160.811 363.415,161.502 363.174 C 162.228 362.921,163.100 362.158,163.566 361.368 C 164.010 360.616,164.635 360.000,164.956 360.000 C 165.277 360.000,165.958 359.459,166.470 358.799 C 166.981 358.138,168.165 356.781,169.100 355.784 C 170.035 354.786,170.800 353.781,170.800 353.552 C 170.800 353.322,171.404 352.384,172.142 351.467 C 172.880 350.550,173.686 349.202,173.932 348.470 C 174.178 347.739,174.801 346.639,175.316 346.027 C 175.831 345.415,176.658 343.628,177.154 342.057 C 177.650 340.486,178.201 339.200,178.379 339.200 C 178.838 339.200,180.214 335.791,180.800 333.200 C 181.079 331.967,181.728 330.538,182.276 329.950 C 182.853 329.330,183.552 327.740,183.982 326.069 C 184.475 324.155,185.042 322.941,185.736 322.319 C 186.308 321.807,187.092 320.354,187.508 319.039 C 188.415 316.172,190.012 315.527,196.400 315.447 C 202.873 315.367,204.620 316.021,205.986 319.034 C 206.608 320.405,207.488 321.726,207.941 321.969 C 208.451 322.242,208.860 322.980,209.014 323.905 C 209.461 326.595,210.289 328.653,211.354 329.717 C 211.929 330.293,212.400 331.059,212.400 331.420 C 212.400 332.852,213.684 336.373,214.590 337.428 C 215.120 338.045,215.848 339.763,216.217 341.271 C 216.612 342.883,217.350 344.582,218.021 345.426 C 218.645 346.212,219.366 347.517,219.622 348.327 C 219.878 349.137,220.572 350.430,221.164 351.200 C 221.757 351.970,222.625 353.232,223.095 354.005 C 223.564 354.778,224.365 355.789,224.874 356.252 C 225.383 356.715,226.303 357.748,226.917 358.547 C 227.531 359.346,228.258 360.000,228.531 360.000 C 228.804 360.000,229.348 360.542,229.740 361.205 C 230.131 361.868,231.083 362.675,231.855 362.997 C 232.627 363.320,234.076 364.303,235.075 365.182 C 236.145 366.124,237.488 366.890,238.345 367.047 C 239.145 367.194,240.382 367.821,241.094 368.440 C 242.425 369.597,245.737 370.800,247.593 370.800 C 248.169 370.800,248.811 370.963,249.020 371.163 C 252.722 374.698,283.574 374.737,288.200 371.212 C 288.420 371.045,289.821 370.788,291.312 370.641 C 294.205 370.357,296.302 369.579,298.131 368.109 C 298.753 367.609,299.473 367.199,299.731 367.198 C 301.182 367.191,303.416 366.171,305.021 364.782 C 306.026 363.912,307.153 363.200,307.524 363.200 C 307.896 363.201,308.807 362.616,309.549 361.900 C 313.548 358.047,315.738 355.673,316.282 354.600 C 316.617 353.940,317.305 352.950,317.811 352.400 C 318.317 351.850,319.090 350.297,319.528 348.948 C 319.966 347.599,320.777 345.799,321.330 344.948 C 321.923 344.034,322.610 342.007,323.006 340.000 C 323.375 338.130,323.993 336.240,324.379 335.800 C 325.323 334.724,325.539 334.053,326.418 329.474 C 326.963 326.638,327.445 325.224,328.157 324.378 C 329.167 323.177,329.754 320.931,330.221 316.471 C 330.449 314.285,330.664 313.779,331.807 312.739 C 332.534 312.077,333.235 311.115,333.364 310.601 C 333.493 310.087,334.229 309.277,334.999 308.800 C 335.770 308.324,336.400 307.789,336.400 307.611 C 336.400 307.433,337.125 306.413,338.011 305.344 C 340.206 302.695,340.802 300.444,340.792 294.827 C 340.771 282.755,339.581 281.323,328.800 280.407 C 325.830 280.154,321.330 279.595,318.800 279.164 C 304.844 276.785,282.175 276.726,268.600 279.033 C 266.620 279.370,261.310 279.983,256.800 280.395 C 251.885 280.845,247.398 281.482,245.600 281.986 C 243.950 282.449,240.620 283.191,238.200 283.636 C 235.780 284.081,233.440 284.593,233.000 284.775 C 230.048 285.991,228.699 286.451,226.400 287.025 C 224.970 287.381,223.350 287.907,222.800 288.194 C 220.671 289.301,218.505 289.961,216.200 290.204 C 212.945 290.546,210.296 291.357,208.788 292.472 C 207.551 293.387,207.387 293.400,197.066 293.400 L 186.600 293.400 184.000 292.137 C 181.378 290.863,178.145 290.000,175.994 290.000 C 174.901 290.000,173.138 289.384,170.800 288.186 C 170.250 287.904,168.630 287.373,167.200 287.006 C 165.770 286.640,163.340 285.915,161.800 285.396 C 160.260 284.877,157.470 284.159,155.600 283.800 C 153.730 283.442,151.390 282.895,150.400 282.586 C 146.916 281.499,142.942 280.845,137.200 280.414 C 134.010 280.175,129.240 279.633,126.600 279.208 C 114.772 277.307,98.847 276.771,85.800 277.835 M122.048 290.390 C 126.782 291.212,133.783 292.146,138.600 292.598 C 140.164 292.745,142.330 293.281,143.506 293.811 C 144.664 294.334,147.634 295.156,150.106 295.638 C 152.856 296.175,154.914 296.797,155.408 297.241 C 155.852 297.640,157.382 298.351,158.808 298.822 C 164.257 300.622,167.391 302.950,169.278 306.600 C 169.960 307.920,170.888 309.711,171.340 310.580 C 172.896 313.569,172.368 325.016,170.544 327.822 C 170.250 328.275,169.573 330.409,169.039 332.565 C 168.377 335.235,167.753 336.823,167.083 337.543 C 166.541 338.124,165.783 339.571,165.398 340.757 C 164.954 342.126,164.215 343.338,163.377 344.074 C 162.651 344.712,161.937 345.777,161.791 346.441 C 161.622 347.208,161.172 347.783,160.553 348.018 C 160.018 348.221,159.218 349.001,158.776 349.751 C 158.333 350.501,157.429 351.339,156.767 351.614 C 156.104 351.888,155.307 352.606,154.995 353.209 C 154.683 353.813,154.017 354.412,153.514 354.541 C 153.011 354.670,151.882 355.400,151.004 356.163 C 150.126 356.926,148.506 357.837,147.404 358.186 C 146.302 358.535,144.811 359.338,144.091 359.971 C 143.001 360.929,142.301 361.163,139.891 361.376 C 138.301 361.517,134.938 361.829,132.417 362.070 C 125.721 362.710,106.611 361.679,105.799 360.634 C 105.242 359.917,102.520 358.571,100.561 358.043 C 99.662 357.801,98.510 357.243,98.003 356.802 C 97.495 356.362,96.226 355.596,95.182 355.101 C 94.139 354.605,92.992 353.716,92.634 353.124 C 92.276 352.533,91.628 351.936,91.193 351.798 C 90.758 351.660,89.861 350.761,89.200 349.800 C 88.539 348.839,87.639 347.939,87.199 347.800 C 86.760 347.660,86.400 347.367,86.400 347.148 C 86.400 346.532,84.358 342.283,83.689 341.509 C 82.934 340.634,80.116 332.628,79.358 329.200 C 79.041 327.770,78.530 326.060,78.221 325.400 C 75.467 319.508,75.596 299.600,78.389 299.600 C 78.548 299.600,79.003 298.880,79.400 298.000 C 79.797 297.120,80.319 296.400,80.561 296.400 C 80.802 296.400,81.990 295.624,83.200 294.676 C 85.647 292.758,87.684 292.278,103.600 289.861 C 106.996 289.345,117.816 289.655,122.048 290.390 M294.946 290.590 C 308.384 292.789,308.177 292.735,310.645 294.652 C 311.883 295.613,313.145 296.400,313.448 296.400 C 313.752 296.400,314.000 296.582,314.000 296.804 C 314.000 297.026,314.714 298.654,315.587 300.422 C 318.176 305.665,318.189 310.703,315.646 323.400 C 314.070 331.270,313.674 332.818,312.957 333.918 C 312.627 334.423,312.023 336.133,311.613 337.718 C 310.701 341.247,310.413 342.000,309.972 342.000 C 309.784 342.000,308.989 343.332,308.206 344.961 C 307.423 346.589,306.513 348.025,306.183 348.151 C 305.854 348.278,305.205 349.023,304.742 349.808 C 304.279 350.592,303.216 351.584,302.379 352.010 C 301.543 352.437,300.743 353.150,300.602 353.593 C 300.461 354.037,300.125 354.400,299.854 354.400 C 299.584 354.400,298.129 355.210,296.622 356.200 C 295.115 357.190,293.593 358.004,293.241 358.009 C 292.313 358.022,289.135 359.525,288.200 360.393 C 287.553 360.993,286.288 361.221,281.600 361.580 C 269.993 362.469,266.373 362.512,259.131 361.848 C 255.243 361.492,251.881 361.200,251.659 361.200 C 251.438 361.200,251.019 360.973,250.729 360.695 C 249.652 359.666,247.877 358.720,245.945 358.147 C 244.852 357.822,243.858 357.296,243.736 356.978 C 243.614 356.660,243.335 356.400,243.115 356.400 C 242.895 356.400,242.181 355.950,241.527 355.400 C 240.873 354.850,240.037 354.399,239.669 354.397 C 239.301 354.396,238.684 353.840,238.298 353.162 C 237.912 352.484,237.086 351.736,236.462 351.501 C 235.806 351.253,235.147 350.594,234.899 349.938 C 234.664 349.314,233.915 348.488,233.237 348.102 C 232.535 347.703,231.822 346.857,231.584 346.140 C 231.353 345.448,230.463 343.901,229.606 342.704 C 228.749 341.507,227.919 340.004,227.762 339.364 C 227.606 338.724,226.902 337.293,226.198 336.184 C 225.423 334.964,224.642 332.927,224.218 331.021 C 223.832 329.290,223.210 327.137,222.834 326.237 C 219.961 319.358,221.818 307.943,226.485 303.784 C 229.004 301.540,231.733 299.600,232.371 299.600 C 233.572 299.600,237.398 298.011,238.025 297.253 C 238.376 296.829,239.432 296.380,240.425 296.233 C 244.136 295.684,248.461 294.562,250.604 293.593 C 251.486 293.194,253.556 292.748,255.204 292.603 C 259.490 292.224,267.026 291.245,269.600 290.733 C 276.644 289.330,286.890 289.273,294.946 290.590 M101.000 392.671 C 100.340 392.779,99.260 393.275,98.600 393.773 C 97.940 394.272,96.521 395.067,95.447 395.541 C 93.214 396.525,87.337 402.365,86.934 404.000 C 86.798 404.550,86.228 405.470,85.666 406.045 C 80.600 411.224,80.385 429.433,85.319 435.418 C 86.010 436.257,86.979 437.813,87.471 438.875 C 88.049 440.122,88.734 440.947,89.403 441.201 C 89.995 441.426,90.615 442.098,90.848 442.765 C 91.098 443.482,91.781 444.184,92.612 444.579 C 93.358 444.933,94.275 445.742,94.650 446.377 C 95.025 447.012,95.797 447.739,96.366 447.993 C 97.496 448.497,100.307 450.324,101.096 451.067 C 101.369 451.324,102.179 451.659,102.896 451.810 C 103.613 451.962,104.560 452.401,105.000 452.786 C 106.285 453.909,108.291 454.740,110.935 455.241 C 112.291 455.499,113.940 456.101,114.600 456.579 C 116.473 457.937,117.894 458.349,122.200 458.782 C 124.400 459.004,127.147 459.548,128.305 459.993 C 135.144 462.617,150.409 462.603,156.369 459.966 C 157.423 459.500,159.793 459.010,162.021 458.798 C 165.858 458.432,168.963 457.449,169.919 456.297 C 170.198 455.961,171.636 455.469,173.114 455.204 C 174.771 454.907,176.643 454.216,178.000 453.401 C 179.210 452.675,180.936 451.883,181.836 451.642 C 182.737 451.401,183.817 450.823,184.236 450.358 C 184.656 449.894,185.900 449.060,187.000 448.506 C 188.100 447.952,189.761 446.801,190.691 445.949 C 191.621 445.097,192.551 444.400,192.758 444.400 C 192.965 444.400,193.524 443.770,194.000 443.000 C 195.244 440.987,197.523 440.985,199.576 442.994 C 202.355 445.714,205.064 447.846,206.423 448.382 C 207.180 448.681,208.340 449.412,209.000 450.006 C 209.660 450.600,211.190 451.398,212.400 451.778 C 213.610 452.158,214.960 452.777,215.400 453.153 C 216.625 454.200,217.976 454.730,220.574 455.185 C 221.880 455.413,223.320 455.927,223.774 456.326 C 225.261 457.633,227.734 458.400,231.786 458.809 C 234.158 459.049,236.425 459.527,237.386 459.990 C 242.719 462.559,257.238 462.649,264.731 460.159 C 266.343 459.623,269.440 459.003,271.613 458.779 C 275.706 458.360,278.024 457.649,279.400 456.393 C 279.840 455.992,281.360 455.455,282.778 455.200 C 285.282 454.750,288.106 453.599,288.578 452.836 C 288.705 452.630,289.746 452.150,290.892 451.770 C 292.037 451.389,293.510 450.577,294.166 449.964 C 294.821 449.352,296.002 448.560,296.789 448.205 C 297.577 447.850,298.555 447.062,298.964 446.454 C 299.373 445.845,300.204 445.128,300.811 444.859 C 301.418 444.590,302.140 443.829,302.414 443.166 C 302.688 442.504,303.394 441.713,303.983 441.409 C 304.592 441.094,305.378 440.111,305.807 439.128 C 306.222 438.177,307.235 436.533,308.060 435.474 C 309.086 434.154,309.644 432.956,309.828 431.674 C 309.977 430.643,310.481 428.990,310.949 428.000 C 312.182 425.392,312.169 418.497,310.925 414.800 C 310.443 413.370,309.863 411.120,309.636 409.800 C 309.295 407.817,308.978 407.184,307.812 406.158 C 307.035 405.474,306.400 404.554,306.400 404.112 C 306.400 402.358,301.105 396.827,298.034 395.373 C 296.813 394.796,295.272 393.935,294.608 393.461 C 292.567 392.006,281.723 392.164,279.200 393.686 C 278.210 394.283,276.680 395.116,275.800 395.537 C 274.920 395.958,273.881 396.853,273.492 397.527 C 273.102 398.200,272.447 398.858,272.035 398.989 C 270.537 399.464,268.187 406.344,268.531 409.250 C 269.100 414.053,273.595 420.135,277.352 421.187 C 278.369 421.471,279.200 421.861,279.200 422.052 C 279.200 423.474,283.992 422.332,285.577 420.531 C 287.536 418.306,287.496 418.237,283.291 416.587 C 279.150 414.963,277.681 411.635,279.217 407.360 C 280.236 404.524,286.757 403.340,289.471 405.498 C 290.092 405.992,291.248 406.747,292.041 407.176 C 297.021 409.871,298.513 418.124,294.908 423.038 C 294.409 423.719,294.000 424.481,294.000 424.733 C 294.000 424.984,293.294 425.635,292.432 426.180 C 291.569 426.724,290.753 427.518,290.618 427.943 C 290.466 428.422,289.884 428.797,289.086 428.929 C 288.379 429.047,286.810 429.357,285.600 429.617 C 280.667 430.680,272.074 429.482,269.234 427.335 C 268.263 426.601,267.291 426.000,267.074 426.000 C 265.818 426.000,256.492 417.666,245.925 407.100 C 244.880 406.055,243.767 405.200,243.452 405.200 C 243.137 405.200,242.505 404.566,242.048 403.792 C 241.489 402.844,240.827 402.305,240.024 402.145 C 239.367 402.013,238.552 401.480,238.211 400.960 C 237.870 400.440,236.918 399.681,236.095 399.273 C 235.273 398.866,233.685 397.954,232.566 397.247 C 231.447 396.541,229.647 395.715,228.566 395.412 C 227.485 395.109,225.520 394.402,224.200 393.840 C 220.343 392.199,212.451 392.532,210.160 394.433 C 209.915 394.637,208.722 395.131,207.510 395.530 C 205.160 396.306,202.004 398.457,199.644 400.891 C 197.785 402.810,195.746 402.693,193.720 400.552 C 193.017 399.809,192.283 399.200,192.090 399.200 C 191.898 399.200,190.714 398.403,189.460 397.430 C 188.206 396.456,186.599 395.538,185.890 395.390 C 185.180 395.242,184.182 394.857,183.672 394.533 C 180.496 392.520,173.336 392.169,169.400 393.834 C 168.080 394.392,166.100 395.124,165.000 395.459 C 163.900 395.795,161.716 396.864,160.146 397.835 C 158.576 398.806,157.122 399.600,156.915 399.600 C 156.709 399.600,156.103 400.066,155.570 400.635 C 155.036 401.204,154.001 401.921,153.268 402.228 C 152.439 402.575,151.769 403.229,151.493 403.958 C 151.189 404.764,150.697 405.201,149.917 405.357 C 149.178 405.504,148.494 406.074,147.952 406.992 C 147.495 407.766,146.941 408.400,146.720 408.400 C 146.500 408.400,144.762 409.923,142.860 411.785 C 133.419 421.022,128.196 425.504,126.093 426.171 C 125.594 426.329,124.632 426.964,123.956 427.582 C 123.279 428.199,122.068 428.815,121.263 428.951 C 120.458 429.086,118.900 429.367,117.800 429.574 C 115.194 430.067,110.325 430.057,107.800 429.554 C 106.700 429.335,105.221 429.057,104.514 428.936 C 103.719 428.800,103.133 428.420,102.982 427.942 C 102.847 427.517,102.036 426.706,101.181 426.140 C 100.325 425.574,99.515 424.762,99.379 424.335 C 99.244 423.908,98.622 423.036,97.998 422.398 C 95.917 420.270,95.789 412.710,97.806 411.124 C 98.362 410.687,99.087 409.805,99.418 409.165 C 99.750 408.524,100.183 408.000,100.381 408.000 C 100.579 408.000,101.850 407.235,103.206 406.300 C 106.148 404.270,111.038 403.805,112.788 405.390 C 116.239 408.512,115.390 414.699,111.308 416.175 C 105.854 418.147,105.848 418.155,108.085 420.567 C 109.854 422.475,113.877 423.443,114.714 422.163 C 114.871 421.923,115.884 421.393,116.964 420.985 C 118.171 420.528,119.160 419.837,119.532 419.189 C 119.864 418.610,120.646 417.844,121.268 417.487 C 122.460 416.803,122.745 416.282,123.768 412.925 C 124.505 410.505,124.595 406.076,123.949 404.028 C 122.620 399.814,122.290 399.163,121.192 398.596 C 120.568 398.273,119.939 397.638,119.795 397.185 C 119.646 396.714,118.647 395.939,117.467 395.379 C 116.330 394.839,114.773 393.997,114.007 393.507 C 112.606 392.613,104.546 392.095,101.000 392.671 " stroke="none" fill="#0c0c0c" fill-rule="evenodd"></path><path id="path1" d="M0.000 252.400 L 0.000 504.800 200.000 504.800 L 400.000 504.800 400.000 252.400 L 400.000 0.000 200.000 0.000 L 0.000 0.000 0.000 252.400 M216.000 54.421 C 219.630 54.650,223.860 55.091,225.400 55.400 C 226.940 55.709,230.414 56.243,233.119 56.588 C 235.825 56.932,238.795 57.391,239.719 57.609 C 240.644 57.827,243.020 58.377,245.000 58.831 C 252.537 60.561,253.830 60.940,255.195 61.822 C 255.968 62.321,257.590 62.848,258.800 62.994 C 261.249 63.288,265.000 64.901,265.349 65.810 C 265.473 66.135,265.908 66.400,266.315 66.400 C 267.911 66.400,271.287 67.694,272.084 68.610 C 272.546 69.142,273.821 69.875,274.917 70.239 C 276.012 70.603,277.559 71.482,278.354 72.194 C 279.150 72.905,280.474 73.706,281.299 73.974 C 282.123 74.242,283.023 74.779,283.299 75.167 C 283.574 75.555,284.570 76.357,285.512 76.949 C 287.661 78.300,293.946 84.590,295.660 87.106 C 296.370 88.148,297.439 89.630,298.035 90.400 C 298.631 91.170,299.247 92.250,299.404 92.800 C 299.561 93.350,300.098 94.250,300.596 94.800 C 301.839 96.172,302.323 97.200,302.824 99.537 C 303.059 100.635,303.520 101.637,303.847 101.763 C 304.841 102.144,305.930 105.218,306.394 108.951 C 306.645 110.969,307.083 112.740,307.413 113.070 C 309.681 115.338,309.993 121.559,309.997 164.655 L 310.000 202.311 311.448 202.583 C 313.985 203.059,318.064 202.115,320.233 200.551 C 320.911 200.061,322.531 199.354,323.833 198.979 C 325.135 198.603,326.650 197.990,327.200 197.616 C 327.750 197.242,329.280 196.513,330.600 195.994 C 331.920 195.476,333.540 194.670,334.200 194.204 C 334.860 193.737,336.659 192.950,338.198 192.455 C 339.737 191.960,341.357 191.228,341.798 190.828 C 343.846 188.969,349.992 187.992,353.400 188.983 C 356.952 190.016,362.376 196.133,363.701 200.600 C 363.962 201.480,364.575 202.794,365.063 203.520 C 366.775 206.064,367.545 214.234,366.450 218.238 C 365.858 220.404,362.110 223.999,359.600 224.808 C 358.610 225.127,357.396 225.866,356.902 226.449 C 356.299 227.163,355.156 227.740,353.411 228.212 C 351.680 228.681,350.742 229.152,350.590 229.630 C 350.361 230.352,347.439 231.997,346.374 232.003 C 346.058 232.005,345.162 232.611,344.383 233.350 C 343.604 234.089,342.524 234.815,341.983 234.965 C 341.059 235.220,336.226 237.491,331.144 240.060 C 329.903 240.687,328.596 241.200,328.239 241.200 C 327.881 241.200,327.277 241.372,326.895 241.581 C 325.136 242.547,320.965 244.400,320.552 244.400 C 319.736 244.400,315.819 245.722,315.200 246.207 C 314.131 247.043,311.442 247.912,308.993 248.214 C 307.365 248.414,306.089 248.866,305.000 249.627 C 303.244 250.856,301.451 251.403,297.800 251.822 C 296.248 252.000,294.552 252.560,293.000 253.407 C 290.752 254.633,286.882 255.600,284.224 255.600 C 283.614 255.600,281.935 256.163,280.493 256.851 C 278.820 257.649,276.402 258.348,273.813 258.780 C 271.580 259.153,269.556 259.580,269.313 259.730 C 268.723 260.095,255.050 262.399,253.457 262.402 C 252.766 262.404,251.721 262.655,251.135 262.960 C 249.513 263.807,245.506 264.324,235.200 265.015 C 226.374 265.608,218.550 266.224,206.800 267.252 C 201.083 267.752,185.917 267.492,182.000 266.827 C 180.570 266.585,172.470 265.933,164.000 265.379 C 147.691 264.312,144.188 263.924,142.370 262.984 C 141.748 262.663,140.620 262.400,139.863 262.400 C 138.015 262.400,124.409 260.102,123.400 259.619 C 122.960 259.409,121.070 258.960,119.200 258.623 C 117.330 258.285,114.720 257.495,113.400 256.867 C 111.699 256.057,109.841 255.587,107.023 255.254 C 103.812 254.873,102.578 254.526,100.623 253.450 C 98.845 252.473,97.305 251.996,94.841 251.660 C 92.379 251.325,90.830 250.846,89.041 249.866 C 87.601 249.078,85.453 248.328,83.803 248.037 C 82.265 247.766,80.195 247.117,79.203 246.595 C 77.314 245.600,74.764 244.700,72.400 244.193 C 71.630 244.028,70.373 243.467,69.607 242.946 C 68.841 242.426,67.907 242.000,67.531 242.000 C 67.155 242.000,66.750 241.843,66.632 241.652 C 66.514 241.460,65.887 241.197,65.240 241.068 C 64.098 240.840,55.576 236.802,54.657 236.054 C 54.405 235.850,53.434 235.455,52.497 235.177 C 51.560 234.899,50.120 234.106,49.297 233.414 C 48.474 232.722,46.998 231.923,46.017 231.637 C 45.036 231.352,43.776 230.610,43.217 229.988 C 42.598 229.301,41.344 228.610,40.015 228.225 C 38.814 227.877,37.284 227.087,36.615 226.469 C 35.947 225.851,34.590 225.011,33.600 224.604 C 31.727 223.833,28.405 220.680,27.274 218.600 C 25.901 216.076,26.844 204.400,28.421 204.400 C 28.617 204.400,29.075 203.365,29.439 202.100 C 30.178 199.531,30.907 197.950,31.739 197.118 C 32.045 196.812,32.612 195.940,32.999 195.180 C 36.288 188.720,46.915 186.340,51.981 190.928 C 52.541 191.436,54.080 192.171,55.400 192.561 C 56.720 192.951,58.430 193.669,59.200 194.157 C 59.970 194.644,61.500 195.375,62.600 195.779 C 63.700 196.184,65.320 196.919,66.200 197.413 C 67.080 197.906,68.790 198.623,70.000 199.005 C 71.210 199.388,72.740 200.092,73.400 200.570 C 74.657 201.481,76.451 202.100,79.800 202.780 C 80.900 203.003,82.180 203.293,82.645 203.425 C 84.146 203.851,84.189 202.854,84.398 162.400 L 84.603 122.600 85.702 119.529 C 86.306 117.841,86.801 115.681,86.803 114.729 C 86.810 110.599,88.053 106.048,89.460 105.000 C 89.755 104.780,90.194 103.524,90.436 102.208 C 90.941 99.456,91.707 97.785,92.709 97.249 C 93.094 97.043,93.748 95.878,94.162 94.660 C 94.634 93.270,95.414 92.004,96.257 91.257 C 96.996 90.603,97.600 89.750,97.600 89.360 C 97.600 88.538,99.112 86.800,99.826 86.800 C 100.094 86.800,100.435 86.305,100.585 85.700 C 100.911 84.376,108.098 77.291,109.462 76.949 C 109.978 76.819,110.400 76.577,110.400 76.411 C 110.400 75.758,112.521 74.037,113.624 73.795 C 114.266 73.654,115.114 73.127,115.510 72.624 C 116.347 71.560,118.068 70.611,119.863 70.225 C 120.558 70.075,121.745 69.352,122.501 68.618 C 123.512 67.635,124.500 67.153,126.238 66.794 C 127.618 66.508,129.182 65.849,130.000 65.209 C 131.510 64.027,133.162 63.414,136.000 62.982 C 136.990 62.831,138.821 62.205,140.069 61.590 C 141.318 60.974,143.388 60.251,144.669 59.982 C 145.951 59.714,147.755 59.253,148.678 58.959 C 149.600 58.665,151.490 58.223,152.878 57.978 C 154.265 57.732,156.293 57.371,157.384 57.176 C 158.475 56.981,161.175 56.626,163.384 56.388 C 165.593 56.149,168.457 55.683,169.748 55.353 C 174.559 54.124,202.412 53.562,216.000 54.421 M114.262 277.818 C 118.408 278.159,123.960 278.784,126.600 279.208 C 129.240 279.633,134.010 280.175,137.200 280.414 C 142.942 280.845,146.916 281.499,150.400 282.586 C 151.390 282.895,153.730 283.442,155.600 283.800 C 157.470 284.159,160.260 284.877,161.800 285.396 C 163.340 285.915,165.770 286.640,167.200 287.006 C 168.630 287.373,170.250 287.904,170.800 288.186 C 173.138 289.384,174.901 290.000,175.994 290.000 C 178.145 290.000,181.378 290.863,184.000 292.137 L 186.600 293.400 197.066 293.400 C 207.387 293.400,207.551 293.387,208.788 292.472 C 210.296 291.357,212.945 290.546,216.200 290.204 C 218.505 289.961,220.671 289.301,222.800 288.194 C 223.350 287.907,224.970 287.381,226.400 287.025 C 228.699 286.451,230.048 285.991,233.000 284.775 C 233.440 284.593,235.780 284.081,238.200 283.636 C 240.620 283.191,243.950 282.449,245.600 281.986 C 247.398 281.482,251.885 280.845,256.800 280.395 C 261.310 279.983,266.620 279.370,268.600 279.033 C 282.175 276.726,304.844 276.785,318.800 279.164 C 321.330 279.595,325.830 280.154,328.800 280.407 C 339.581 281.323,340.771 282.755,340.792 294.827 C 340.802 300.444,340.206 302.695,338.011 305.344 C 337.125 306.413,336.400 307.433,336.400 307.611 C 336.400 307.789,335.770 308.324,334.999 308.800 C 334.229 309.277,333.493 310.087,333.364 310.601 C 333.235 311.115,332.534 312.077,331.807 312.739 C 330.664 313.779,330.449 314.285,330.221 316.471 C 329.754 320.931,329.167 323.177,328.157 324.378 C 327.445 325.224,326.963 326.638,326.418 329.474 C 325.539 334.053,325.323 334.724,324.379 335.800 C 323.993 336.240,323.375 338.130,323.006 340.000 C 322.610 342.007,321.923 344.034,321.330 344.948 C 320.777 345.799,319.966 347.599,319.528 348.948 C 319.090 350.297,318.317 351.850,317.811 352.400 C 317.305 352.950,316.617 353.940,316.282 354.600 C 315.738 355.673,313.548 358.047,309.549 361.900 C 308.807 362.616,307.896 363.201,307.524 363.200 C 307.153 363.200,306.026 363.912,305.021 364.782 C 303.416 366.171,301.182 367.191,299.731 367.198 C 299.473 367.199,298.753 367.609,298.131 368.109 C 296.302 369.579,294.205 370.357,291.312 370.641 C 289.821 370.788,288.420 371.045,288.200 371.212 C 283.574 374.737,252.722 374.698,249.020 371.163 C 248.811 370.963,248.169 370.800,247.593 370.800 C 245.737 370.800,242.425 369.597,241.094 368.440 C 240.382 367.821,239.145 367.194,238.345 367.047 C 237.488 366.890,236.145 366.124,235.075 365.182 C 234.076 364.303,232.627 363.320,231.855 362.997 C 231.083 362.675,230.131 361.868,229.740 361.205 C 229.348 360.542,228.804 360.000,228.531 360.000 C 228.258 360.000,227.531 359.346,226.917 358.547 C 226.303 357.748,225.383 356.715,224.874 356.252 C 224.365 355.789,223.564 354.778,223.095 354.005 C 222.625 353.232,221.757 351.970,221.164 351.200 C 220.572 350.430,219.878 349.137,219.622 348.327 C 219.366 347.517,218.645 346.212,218.021 345.426 C 217.350 344.582,216.612 342.883,216.217 341.271 C 215.848 339.763,215.120 338.045,214.590 337.428 C 213.684 336.373,212.400 332.852,212.400 331.420 C 212.400 331.059,211.929 330.293,211.354 329.717 C 210.289 328.653,209.461 326.595,209.014 323.905 C 208.860 322.980,208.451 322.242,207.941 321.969 C 207.488 321.726,206.608 320.405,205.986 319.034 C 204.620 316.021,202.873 315.367,196.400 315.447 C 190.012 315.527,188.415 316.172,187.508 319.039 C 187.092 320.354,186.308 321.807,185.736 322.319 C 185.042 322.941,184.475 324.155,183.982 326.069 C 183.552 327.740,182.853 329.330,182.276 329.950 C 181.728 330.538,181.079 331.967,180.800 333.200 C 180.214 335.791,178.838 339.200,178.379 339.200 C 178.201 339.200,177.650 340.486,177.154 342.057 C 176.658 343.628,175.831 345.415,175.316 346.027 C 174.801 346.639,174.178 347.739,173.932 348.470 C 173.686 349.202,172.880 350.550,172.142 351.467 C 171.404 352.384,170.800 353.322,170.800 353.552 C 170.800 353.781,170.035 354.786,169.100 355.784 C 168.165 356.781,166.981 358.138,166.470 358.799 C 165.958 359.459,165.277 360.000,164.956 360.000 C 164.635 360.000,164.010 360.616,163.566 361.368 C 163.100 362.158,162.228 362.921,161.502 363.174 C 160.811 363.415,159.688 364.221,159.006 364.966 C 158.200 365.845,157.027 366.539,155.657 366.946 C 154.497 367.290,153.012 368.024,152.355 368.576 C 151.070 369.658,147.762 370.800,145.913 370.800 C 145.286 370.800,144.373 371.051,143.886 371.358 C 138.295 374.880,109.942 374.755,105.000 371.186 C 104.780 371.027,103.397 370.772,101.927 370.620 C 99.836 370.403,98.697 370.007,96.702 368.803 C 95.299 367.957,93.481 367.139,92.663 366.985 C 91.839 366.831,90.170 365.925,88.918 364.953 C 87.676 363.989,86.382 363.200,86.042 363.200 C 84.876 363.200,77.812 355.994,76.849 353.823 C 76.454 352.930,75.830 351.952,75.462 351.649 C 75.095 351.345,74.342 349.615,73.790 347.804 C 73.237 345.993,72.437 344.196,72.012 343.811 C 71.577 343.417,71.047 342.122,70.802 340.855 C 69.860 335.979,69.520 334.905,68.606 333.919 C 67.562 332.794,66.996 331.000,66.582 327.507 C 66.410 326.063,65.904 324.574,65.214 323.486 C 64.102 321.732,63.433 319.418,62.994 315.800 C 62.811 314.292,62.412 313.420,61.375 312.256 C 60.619 311.407,60.000 310.572,60.000 310.401 C 60.000 310.231,58.893 308.946,57.539 307.546 C 53.504 303.371,53.063 301.990,53.094 293.600 C 53.137 282.136,53.890 281.367,66.200 280.221 C 69.940 279.873,74.440 279.311,76.200 278.972 C 84.727 277.332,101.958 276.809,114.262 277.818 M103.600 289.861 C 87.684 292.278,85.647 292.758,83.200 294.676 C 81.990 295.624,80.802 296.400,80.561 296.400 C 80.319 296.400,79.797 297.120,79.400 298.000 C 79.003 298.880,78.548 299.600,78.389 299.600 C 75.596 299.600,75.467 319.508,78.221 325.400 C 78.530 326.060,79.041 327.770,79.358 329.200 C 80.116 332.628,82.934 340.634,83.689 341.509 C 84.358 342.283,86.400 346.532,86.400 347.148 C 86.400 347.367,86.760 347.660,87.199 347.800 C 87.639 347.939,88.539 348.839,89.200 349.800 C 89.861 350.761,90.758 351.660,91.193 351.798 C 91.628 351.936,92.276 352.533,92.634 353.124 C 92.992 353.716,94.139 354.605,95.182 355.101 C 96.226 355.596,97.495 356.362,98.003 356.802 C 98.510 357.243,99.662 357.801,100.561 358.043 C 102.520 358.571,105.242 359.917,105.799 360.634 C 106.611 361.679,125.721 362.710,132.417 362.070 C 134.938 361.829,138.301 361.517,139.891 361.376 C 142.301 361.163,143.001 360.929,144.091 359.971 C 144.811 359.338,146.302 358.535,147.404 358.186 C 148.506 357.837,150.126 356.926,151.004 356.163 C 151.882 355.400,153.011 354.670,153.514 354.541 C 154.017 354.412,154.683 353.813,154.995 353.209 C 155.307 352.606,156.104 351.888,156.767 351.614 C 157.429 351.339,158.333 350.501,158.776 349.751 C 159.218 349.001,160.018 348.221,160.553 348.018 C 161.172 347.783,161.622 347.208,161.791 346.441 C 161.937 345.777,162.651 344.712,163.377 344.074 C 164.215 343.338,164.954 342.126,165.398 340.757 C 165.783 339.571,166.541 338.124,167.083 337.543 C 167.753 336.823,168.377 335.235,169.039 332.565 C 169.573 330.409,170.250 328.275,170.544 327.822 C 172.368 325.016,172.896 313.569,171.340 310.580 C 170.888 309.711,169.960 307.920,169.278 306.600 C 167.391 302.950,164.257 300.622,158.808 298.822 C 157.382 298.351,155.852 297.640,155.408 297.241 C 154.914 296.797,152.856 296.175,150.106 295.638 C 147.634 295.156,144.664 294.334,143.506 293.811 C 142.330 293.281,140.164 292.745,138.600 292.598 C 133.783 292.146,126.782 291.212,122.048 290.390 C 117.816 289.655,106.996 289.345,103.600 289.861 M274.800 290.003 C 273.150 290.164,270.810 290.492,269.600 290.733 C 267.026 291.245,259.490 292.224,255.204 292.603 C 253.556 292.748,251.486 293.194,250.604 293.593 C 248.461 294.562,244.136 295.684,240.425 296.233 C 239.432 296.380,238.376 296.829,238.025 297.253 C 237.398 298.011,233.572 299.600,232.371 299.600 C 231.733 299.600,229.004 301.540,226.485 303.784 C 221.818 307.943,219.961 319.358,222.834 326.237 C 223.210 327.137,223.832 329.290,224.218 331.021 C 224.642 332.927,225.423 334.964,226.198 336.184 C 226.902 337.293,227.606 338.724,227.762 339.364 C 227.919 340.004,228.749 341.507,229.606 342.704 C 230.463 343.901,231.353 345.448,231.584 346.140 C 231.822 346.857,232.535 347.703,233.237 348.102 C 233.915 348.488,234.664 349.314,234.899 349.938 C 235.147 350.594,235.806 351.253,236.462 351.501 C 237.086 351.736,237.912 352.484,238.298 353.162 C 238.684 353.840,239.301 354.396,239.669 354.397 C 240.037 354.399,240.873 354.850,241.527 355.400 C 242.181 355.950,242.895 356.400,243.115 356.400 C 243.335 356.400,243.614 356.660,243.736 356.978 C 243.858 357.296,244.852 357.822,245.945 358.147 C 247.877 358.720,249.652 359.666,250.729 360.695 C 251.019 360.973,251.438 361.200,251.659 361.200 C 251.881 361.200,255.243 361.492,259.131 361.848 C 266.373 362.512,269.993 362.469,281.600 361.580 C 286.288 361.221,287.553 360.993,288.200 360.393 C 289.135 359.525,292.313 358.022,293.241 358.009 C 293.593 358.004,295.115 357.190,296.622 356.200 C 298.129 355.210,299.584 354.400,299.854 354.400 C 300.125 354.400,300.461 354.037,300.602 353.593 C 300.743 353.150,301.543 352.437,302.379 352.010 C 303.216 351.584,304.279 350.592,304.742 349.808 C 305.205 349.023,305.854 348.278,306.183 348.151 C 306.513 348.025,307.423 346.589,308.206 344.961 C 308.989 343.332,309.784 342.000,309.972 342.000 C 310.413 342.000,310.701 341.247,311.613 337.718 C 312.023 336.133,312.627 334.423,312.957 333.918 C 313.674 332.818,314.070 331.270,315.646 323.400 C 318.189 310.703,318.176 305.665,315.587 300.422 C 314.714 298.654,314.000 297.026,314.000 296.804 C 314.000 296.582,313.752 296.400,313.448 296.400 C 313.145 296.400,311.883 295.613,310.645 294.652 C 308.177 292.735,308.384 292.789,294.946 290.590 C 288.656 289.562,281.495 289.353,274.800 290.003 M114.007 393.507 C 114.773 393.997,116.330 394.839,117.467 395.379 C 118.647 395.939,119.646 396.714,119.795 397.185 C 119.939 397.638,120.568 398.273,121.192 398.596 C 122.290 399.163,122.620 399.814,123.949 404.028 C 124.595 406.076,124.505 410.505,123.768 412.925 C 122.745 416.282,122.460 416.803,121.268 417.487 C 120.646 417.844,119.864 418.610,119.532 419.189 C 119.160 419.837,118.171 420.528,116.964 420.985 C 115.884 421.393,114.871 421.923,114.714 422.163 C 113.877 423.443,109.854 422.475,108.085 420.567 C 105.848 418.155,105.854 418.147,111.308 416.175 C 115.390 414.699,116.239 408.512,112.788 405.390 C 111.038 403.805,106.148 404.270,103.206 406.300 C 101.850 407.235,100.579 408.000,100.381 408.000 C 100.183 408.000,99.750 408.524,99.418 409.165 C 99.087 409.805,98.362 410.687,97.806 411.124 C 95.789 412.710,95.917 420.270,97.998 422.398 C 98.622 423.036,99.244 423.908,99.379 424.335 C 99.515 424.762,100.325 425.574,101.181 426.140 C 102.036 426.706,102.847 427.517,102.982 427.942 C 103.133 428.420,103.719 428.800,104.514 428.936 C 105.221 429.057,106.700 429.335,107.800 429.554 C 110.325 430.057,115.194 430.067,117.800 429.574 C 118.900 429.367,120.458 429.086,121.263 428.951 C 122.068 428.815,123.279 428.199,123.956 427.582 C 124.632 426.964,125.594 426.329,126.093 426.171 C 128.196 425.504,133.419 421.022,142.860 411.785 C 144.762 409.923,146.500 408.400,146.720 408.400 C 146.941 408.400,147.495 407.766,147.952 406.992 C 148.494 406.074,149.178 405.504,149.917 405.357 C 150.697 405.201,151.189 404.764,151.493 403.958 C 151.769 403.229,152.439 402.575,153.268 402.228 C 154.001 401.921,155.036 401.204,155.570 400.635 C 156.103 400.066,156.709 399.600,156.915 399.600 C 157.122 399.600,158.576 398.806,160.146 397.835 C 161.716 396.864,163.900 395.795,165.000 395.459 C 166.100 395.124,168.080 394.392,169.400 393.834 C 173.336 392.169,180.496 392.520,183.672 394.533 C 184.182 394.857,185.180 395.242,185.890 395.390 C 186.599 395.538,188.206 396.456,189.460 397.430 C 190.714 398.403,191.898 399.200,192.090 399.200 C 192.283 399.200,193.017 399.809,193.720 400.552 C 195.746 402.693,197.785 402.810,199.644 400.891 C 202.004 398.457,205.160 396.306,207.510 395.530 C 208.722 395.131,209.915 394.637,210.160 394.433 C 212.451 392.532,220.343 392.199,224.200 393.840 C 225.520 394.402,227.485 395.109,228.566 395.412 C 229.647 395.715,231.447 396.541,232.566 397.247 C 233.685 397.954,235.273 398.866,236.095 399.273 C 236.918 399.681,237.870 400.440,238.211 400.960 C 238.552 401.480,239.367 402.013,240.024 402.145 C 240.827 402.305,241.489 402.844,242.048 403.792 C 242.505 404.566,243.137 405.200,243.452 405.200 C 243.767 405.200,244.880 406.055,245.925 407.100 C 256.492 417.666,265.818 426.000,267.074 426.000 C 267.291 426.000,268.263 426.601,269.234 427.335 C 272.074 429.482,280.667 430.680,285.600 429.617 C 286.810 429.357,288.379 429.047,289.086 428.929 C 289.884 428.797,290.466 428.422,290.618 427.943 C 290.753 427.518,291.569 426.724,292.432 426.180 C 293.294 425.635,294.000 424.984,294.000 424.733 C 294.000 424.481,294.409 423.719,294.908 423.038 C 298.513 418.124,297.021 409.871,292.041 407.176 C 291.248 406.747,290.092 405.992,289.471 405.498 C 286.757 403.340,280.236 404.524,279.217 407.360 C 277.681 411.635,279.150 414.963,283.291 416.587 C 287.496 418.237,287.536 418.306,285.577 420.531 C 283.992 422.332,279.200 423.474,279.200 422.052 C 279.200 421.861,278.369 421.471,277.352 421.187 C 273.595 420.135,269.100 414.053,268.531 409.250 C 268.187 406.344,270.537 399.464,272.035 398.989 C 272.447 398.858,273.102 398.200,273.492 397.527 C 273.881 396.853,274.920 395.958,275.800 395.537 C 276.680 395.116,278.210 394.283,279.200 393.686 C 281.723 392.164,292.567 392.006,294.608 393.461 C 295.272 393.935,296.813 394.796,298.034 395.373 C 301.105 396.827,306.400 402.358,306.400 404.112 C 306.400 404.554,307.035 405.474,307.812 406.158 C 308.978 407.184,309.295 407.817,309.636 409.800 C 309.863 411.120,310.443 413.370,310.925 414.800 C 312.169 418.497,312.182 425.392,310.949 428.000 C 310.481 428.990,309.977 430.643,309.828 431.674 C 309.644 432.956,309.086 434.154,308.060 435.474 C 307.235 436.533,306.222 438.177,305.807 439.128 C 305.378 440.111,304.592 441.094,303.983 441.409 C 303.394 441.713,302.688 442.504,302.414 443.166 C 302.140 443.829,301.418 444.590,300.811 444.859 C 300.204 445.128,299.373 445.845,298.964 446.454 C 298.555 447.062,297.577 447.850,296.789 448.205 C 296.002 448.560,294.821 449.352,294.166 449.964 C 293.510 450.577,292.037 451.389,290.892 451.770 C 289.746 452.150,288.705 452.630,288.578 452.836 C 288.106 453.599,285.282 454.750,282.778 455.200 C 281.360 455.455,279.840 455.992,279.400 456.393 C 278.024 457.649,275.706 458.360,271.613 458.779 C 269.440 459.003,266.343 459.623,264.731 460.159 C 257.238 462.649,242.719 462.559,237.386 459.990 C 236.425 459.527,234.158 459.049,231.786 458.809 C 227.734 458.400,225.261 457.633,223.774 456.326 C 223.320 455.927,221.880 455.413,220.574 455.185 C 217.976 454.730,216.625 454.200,215.400 453.153 C 214.960 452.777,213.610 452.158,212.400 451.778 C 211.190 451.398,209.660 450.600,209.000 450.006 C 208.340 449.412,207.180 448.681,206.423 448.382 C 205.064 447.846,202.355 445.714,199.576 442.994 C 197.523 440.985,195.244 440.987,194.000 443.000 C 193.524 443.770,192.965 444.400,192.758 444.400 C 192.551 444.400,191.621 445.097,190.691 445.949 C 189.761 446.801,188.100 447.952,187.000 448.506 C 185.900 449.060,184.656 449.894,184.236 450.358 C 183.817 450.823,182.737 451.401,181.836 451.642 C 180.936 451.883,179.210 452.675,178.000 453.401 C 176.643 454.216,174.771 454.907,173.114 455.204 C 171.636 455.469,170.198 455.961,169.919 456.297 C 168.963 457.449,165.858 458.432,162.021 458.798 C 159.793 459.010,157.423 459.500,156.369 459.966 C 150.409 462.603,135.144 462.617,128.305 459.993 C 127.147 459.548,124.400 459.004,122.200 458.782 C 117.894 458.349,116.473 457.937,114.600 456.579 C 113.940 456.101,112.291 455.499,110.935 455.241 C 108.291 454.740,106.285 453.909,105.000 452.786 C 104.560 452.401,103.613 451.962,102.896 451.810 C 102.179 451.659,101.369 451.324,101.096 451.067 C 100.307 450.324,97.496 448.497,96.366 447.993 C 95.797 447.739,95.025 447.012,94.650 446.377 C 94.275 445.742,93.358 444.933,92.612 444.579 C 91.781 444.184,91.098 443.482,90.848 442.765 C 90.615 442.098,89.995 441.426,89.403 441.201 C 88.734 440.947,88.049 440.122,87.471 438.875 C 86.979 437.813,86.010 436.257,85.319 435.418 C 80.385 429.433,80.600 411.224,85.666 406.045 C 86.228 405.470,86.798 404.550,86.934 404.000 C 87.337 402.365,93.214 396.525,95.447 395.541 C 96.521 395.067,97.940 394.272,98.600 393.773 C 100.838 392.083,111.488 391.899,114.007 393.507 " stroke="none" fill="#fbfbfb" fill-rule="evenodd"></path></g></svg>